C:\GBW_MyPrograms\KinderuniversiteitApp\Resultaten\New_group\test5_v1.mot
version=1
nRows=7
nColumns=31
inDegrees=yes
endheader
                time	         pelvis_tilt	           pelvis_tx	           pelvis_ty	       hip_flexion_r	        knee_angle_r	       ankle_angle_r	       hip_flexion_l	        knee_angle_l	       ankle_angle_l	    lumbar_extension	          arm_flex_r	          arm_flex_l	hamstrings_r/activation	bifemsh_r/activation	glut_max_r/activation	iliopsoas_r/activation	rect_fem_r/activation	  vasti_r/activation	gastroc_r/activation	 soleus_r/activation	tib_ant_r/activation	hamstrings_l/activation	bifemsh_l/activation	glut_max_l/activation	iliopsoas_l/activation	rect_fem_l/activation	  vasti_l/activation	gastroc_l/activation	 soleus_l/activation	tib_ant_l/activation	
          0.00000000	         -1.66672906	          0.00000000	          0.66639407	         33.52684471	        -34.44555691	         -2.96286310	        -12.14473853	        -17.89602757	         -8.89776282	         -2.68984021	         -4.02761470	         -4.02761786	          0.48949830	          0.59125991	          0.52416989	          0.58236122	          0.60003380	          0.61526999	          0.40911629	          0.12700061	          0.82222124	          0.35250705	          0.62891610	          0.35460663	          0.85124740	          0.70862277	          0.38304837	          0.64851229	          0.78349336	          0.26960289	
          0.00655048	         -1.63793095	          0.01040181	          0.66604115	         32.87432936	        -33.30526129	         -2.98894759	        -12.55751299	        -18.38321041	        -11.24183580	         -2.46465403	         -4.37793173	         -4.37793490	          0.53474639	          0.58416062	          0.54554567	          0.55358116	          0.58746032	          0.64520748	          0.39753097	          0.12388646	          0.84244727	          0.36525282	          0.64315243	          0.33328234	          0.86421530	          0.69692007	          0.35018338	          0.63702952	          0.74974784	          0.25605207	
          0.01310096	         -1.61095971	          0.02091158	          0.66558148	         32.18402408	        -32.63955154	         -2.84488683	        -12.83374775	        -19.08136368	        -13.71277078	         -2.21947899	         -4.74940501	         -4.74940816	          0.60775579	          0.57928126	          0.58333854	          0.52329921	          0.57056235	          0.68571527	          0.39390288	          0.12574585	          0.83910346	          0.40501633	          0.65696359	          0.31904661	          0.87088624	          0.67062433	          0.31983578	          0.62207500	          0.70975154	          0.25137512	
          0.01965144	         -1.58565653	          0.03149897	          0.66501280	         31.44113283	        -32.53816494	         -2.38626259	        -12.97609946	        -19.98524413	        -16.27225260	         -1.95926738	         -5.13556756	         -5.13557071	          0.67983726	          0.57122051	          0.66235887	          0.49097328	          0.54461023	          0.73306981	          0.41626752	          0.16155126	          0.79768520	          0.46431311	          0.67110838	          0.29227683	          0.86268471	          0.63271595	          0.29189871	          0.60717406	          0.66843808	          0.30002547	
          0.02620192	         -1.56281319	          0.04210909	          0.66434576	         30.59212841	        -32.82945708	         -1.34413268	        -12.98814729	        -21.09537491	        -18.77809641	         -1.69193727	         -5.52513889	         -5.52514199	          0.72786617	          0.55881434	          0.74972953	          0.45179786	          0.52773933	          0.79964623	          0.41560467	          0.17339422	          0.78273150	          0.52082486	          0.68830743	          0.28247419	          0.84425512	          0.59509268	          0.26737288	          0.59608766	          0.62942314	          0.38716732	
          0.03275241	         -1.53925231	          0.05264562	          0.66362055	         29.57142897	        -32.90907457	         -0.14301998	        -12.88702385	        -22.36941367	        -20.92817208	         -1.43693722	         -5.89747829	         -5.89748138	          0.71780315	          0.54339323	          0.80319510	          0.41902788	          0.52185115	          0.84333905	          0.41698962	          0.18169620	          0.75792501	          0.51588301	          0.69904118	          0.26863431	          0.85337364	          0.57552835	          0.24357509	          0.59369385	          0.59733687	          0.35462304	
          0.03930289	         -1.52218419	          0.06296906	          0.66289491	         28.52295129	        -32.89204209	          0.94034896	        -12.66777026	        -23.70900066	        -22.22825469	         -1.20855648	         -6.22537637	         -6.22537938	          0.69952380	          0.53480547	          0.81202381	          0.40757187	          0.53248855	          0.86660666	          0.41225615	          0.17792961	          0.74749208	          0.49874200	          0.70975229	          0.25139188	          0.86859756	          0.59667169	          0.22138019	          0.58150941	          0.55110857	          0.36651851	
